
<svg width="20px" height="20px" viewBox="0 0 20 20" version="1.1" xmlns="http://www.w3.org/2000/svg" xmlns:xlink="http://www.w3.org/1999/xlink">
    <defs>
        <path d="M5.1277704,-2.07168062e-16 L14.8722296,2.07168062e-16 C16.6552671,-1.2037061e-16 17.3018396,0.185651222 17.9536914,0.534265408 C18.6055433,0.882879593 19.1171204,1.39445674 19.4657346,2.04630859 C19.8143488,2.69816044 20,3.34473292 20,5.1277704 L20,14.8722296 C20,16.6552671 19.8143488,17.3018396 19.4657346,17.9536914 C19.1171204,18.6055433 18.6055433,19.1171204 17.9536914,19.4657346 C17.3018396,19.8143488 16.6552671,20 14.8722296,20 L5.1277704,20 C3.34473292,20 2.69816044,19.8143488 2.04630859,19.4657346 C1.39445674,19.1171204 0.882879593,18.6055433 0.534265408,17.9536914 C0.185651222,17.3018396 8.02470732e-17,16.6552671 -1.38112041e-16,14.8722296 L1.38112041e-16,5.1277704 C-8.02470732e-17,3.34473292 0.185651222,2.69816044 0.534265408,2.04630859 C0.882879593,1.39445674 1.39445674,0.882879593 2.04630859,0.534265408 C2.69816044,0.185651222 3.34473292,1.2037061e-16 5.1277704,-2.07168062e-16 Z" id="path-1"></path>
        <path d="M8.85766185,4 C8.63181183,4 8.43926409,4.1613243 8.39990685,4.38103837 L8.39990685,4.38103837 L7.01634839,10.3379985 C7.00605496,10.3777276 7,10.4192626 7,10.4613995 L7,10.4613995 C7,10.716629 7.20768514,10.923702 7.46441546,10.9224981 L7.46441546,10.9224981 L10.0183978,10.9224981 L9.33055426,15.4462002 C9.32389381,15.475696 9.32147182,15.5063958 9.32147182,15.5376975 L9.32147182,15.5376975 C9.32147182,15.792927 9.52915696,15.9987961 9.78528179,16 L9.78528179,16 C9.95724266,16 10.1152771,15.9042889 10.1952026,15.7525959 L10.1952026,15.7525959 L13.4091756,9.81008277 C13.4606428,9.72641084 13.5,9.63852521 13.5,9.5379985 L13.5,9.5379985 C13.5,9.28337096 13.2923149,9.07689992 13.034979,9.07689992 L13.034979,9.07689992 L10.4816022,9.07689992 L12.0661854,4.65071482 C12.0928272,4.59112114 12.1067536,4.52610986 12.1067536,4.46109857 L12.1067536,4.46109857 C12.1067536,4.20586907 11.8990685,4 11.6423381,4 L11.6423381,4 L8.85766185,4 Z" id="path-3"></path>
    </defs>
    <g id="页面-1" stroke="none" stroke-width="1" fill="none" fill-rule="evenodd">
        <g id="底部控件进度条样式" transform="translate(-32.000000, -557.000000)">
            <g id="编组-5备份-3" transform="translate(16.000000, 545.000000)">
                <g id="Corners备份" transform="translate(16.000000, 12.000000)">
                    <mask id="mask-2" fill="white">
                        <use xlink:href="#path-1"></use>
                    </mask>
                    <use id="▪︎-Bitmap" fill="#FF9902" xlink:href="#path-1"></use>
                    <mask id="mask-4" fill="white">
                        <use xlink:href="#path-3"></use>
                    </mask>
                    <use id="Icon" fill="#FFFFFF" xlink:href="#path-3"></use>
                </g>
            </g>
        </g>
    </g>
</svg>