<?xml version="1.0" encoding="UTF-8"?>
<svg width="18px" height="15px" viewBox="0 0 18 15" version="1.1" xmlns="http://www.w3.org/2000/svg" xmlns:xlink="http://www.w3.org/1999/xlink">
    <!-- Generator: Sketch 55.2 (78181) - https://sketchapp.com -->
    <title>clock</title>
    <desc>Created with Sketch.</desc>
    <g id="页面1" stroke="none" stroke-width="1" fill="none" fill-rule="evenodd">
        <g id="免费课程详情页（已领取）" transform="translate(-17.000000, -396.000000)">
            <g id="编组-2" transform="translate(0.000000, 375.000000)">
                <g id="clock" transform="translate(16.000000, 18.000000)">
                    <path d="M14.0246571,16.380583 C12.9085818,17.237678 11.5135012,17.7468604 10,17.7468604 C8.48649877,17.7468604 7.09141822,17.237678 5.97534295,16.380583 L4.90579329,17.6606609 C4.57113044,18.0611982 3.97513297,18.1145999 3.57459569,17.7799371 C3.57358212,17.7790902 3.57257033,17.7782412 3.57156032,17.7773901 L3.56725061,17.7737584 C3.16833488,17.4376002 3.11624439,16.8421979 3.45072706,16.4418762 L4.64356843,15.0142381 C3.84175328,13.9131573 3.36842105,12.5555848 3.36842105,11.086988 C3.36842105,7.40884198 6.33748008,4.42711552 10,4.42711552 C13.6625199,4.42711552 16.6315789,7.40884198 16.6315789,11.086988 C16.6315789,12.5555848 16.1582467,13.9131573 15.3564316,15.0142381 L16.5492729,16.4418762 C16.8837556,16.8421979 16.8316651,17.4376002 16.4327494,17.7737584 L16.4284397,17.7773901 C16.4274297,17.7782412 16.4264179,17.7790902 16.4254043,17.7799371 C16.024867,18.1145999 15.4288696,18.0611982 15.0942067,17.6606609 L14.0246571,16.380583 Z M10.2368421,10.8491354 L10.2368421,8.23275692 C10.2368421,7.83866985 9.91872864,7.51919916 9.52631579,7.51919916 C9.13390294,7.51919916 8.81578947,7.83866985 8.81578947,8.23275692 L8.81578947,11.5626931 C8.81578947,11.9567802 9.13390294,12.2762509 9.52631579,12.2762509 L11.8947368,12.2762509 C12.2871497,12.2762509 12.6052632,11.9567802 12.6052632,11.5626931 C12.6052632,11.1686061 12.2871497,10.8491354 11.8947368,10.8491354 L10.2368421,10.8491354 Z M14.0748614,3.91243463 C14.5938665,3.35117761 15.3350439,3 16.1578947,3 C17.7275461,3 19,4.27788277 19,5.85423105 C19,6.86622418 18.4755636,7.75520603 17.6847355,8.26203096 C17.0802913,6.3894905 15.7727601,4.83494043 14.0748614,3.91243463 Z M5.92513859,3.91243463 C4.22723992,4.83494043 2.91970866,6.3894905 2.31526447,8.26203096 C1.52443639,7.75520603 1,6.86622418 1,5.85423105 C1,4.27788277 2.27245387,3 3.84210526,3 C4.66495609,3 5.40613345,3.35117761 5.92513859,3.91243463 Z" id="形状结合" fill="#FF3B30"></path>
                    <rect id="矩形" x="0" y="0" width="20" height="20"></rect>
                </g>
            </g>
        </g>
    </g>
</svg>