
<svg width="10px" height="10px" viewBox="0 0 10 10" version="1.1" xmlns="http://www.w3.org/2000/svg" xmlns:xlink="http://www.w3.org/1999/xlink">
    <g id="页面1" stroke="none" stroke-width="1" fill="none" fill-rule="evenodd">
        <g id="团队学习详情页-导师端备份" transform="translate(-205.000000, -395.000000)" fill="#C7C7D0" fill-rule="nonzero">
            <g id="编组-11" transform="translate(205.000000, 395.000000)">
                <path d="M9.79252105,4.39007107 C10.0750715,4.67722087 10.0681353,5.13755391 9.7772114,5.41614516 L5.91868352,9.11483367 L4.98981771,10 L4.86253319,9.87756229 L4.06542433,9.11080555 C1.3156953,6.47742634 0.213339198,5.42163576 0.207031425,5.41528468 C-0.0749411846,5.12869274 -0.0679948307,4.66927431 0.222430845,4.39118864 C0.514373336,4.1116506 0.977174803,4.11166355 1.26910138,4.39121806 L4.99028775,7.95469788 L8.72855714,4.37489791 C9.02341429,4.09254009 9.48724231,4.09708361 9.79252105,4.39007107 Z M9.79252105,0.223404401 C10.0750715,0.510554207 10.0681353,0.970887243 9.7772114,1.24947849 L5.91868352,4.948167 L4.98981771,5.83333333 L4.86253319,5.71089562 L4.06542433,4.94413889 C1.3156953,2.31075967 0.213339198,1.25496909 0.207031425,1.24861801 C-0.0749411846,0.96202607 -0.0679948307,0.502607641 0.222430845,0.224521973 C0.514373336,-0.055016062 0.977174803,-0.0550031154 1.26910138,0.224551398 L4.99028775,3.78803121 L8.72855714,0.208231247 C9.02341429,-0.0741265729 9.48724231,-0.0695830548 9.79252105,0.223404401 Z" id="形状结合"></path>
            </g>
        </g>
    </g>
</svg>