
<svg width="22px" height="22px" viewBox="0 0 22 22" version="1.1" xmlns="http://www.w3.org/2000/svg" xmlns:xlink="http://www.w3.org/1999/xlink">
    <g id="页面1" stroke="none" stroke-width="1" fill="none" fill-rule="evenodd">
        <g id="训练营详情页（管理员&amp;导师端）" transform="translate(-330.000000, -85.000000)">
            <g id="编组" transform="translate(323.000000, 78.000000)">
                <g id="二维码" transform="translate(7.000000, 7.000000)" fill="#FFFFFF" fill-rule="nonzero">
                    <path d="M2.42388102e-05,10.2569434 L10.2569919,10.2569434 L10.2569919,0 L2.42388102e-05,0 L2.42388102e-05,10.2569434 Z M2.56427221,2.56424798 L7.69274393,2.56424798 L7.69274393,7.69271969 L2.56427221,7.69271969 L2.56427221,2.56424798 Z M11.5391037,2.42388103e-05 L11.5391037,10.2569919 L21.7960714,10.2569919 L21.7960714,2.42388103e-05 L11.5391037,2.42388103e-05 L11.5391037,2.42388103e-05 Z M19.2317992,7.69271969 L14.1033275,7.69271969 L14.1033275,2.56424798 L19.2317992,2.56424798 L19.2317992,7.69271969 L19.2317992,7.69271969 Z M3.84635984,6.41061509 L6.41058358,6.41061509 L6.41058358,3.84636712 L3.84635984,3.84636712 L3.84635984,6.41061509 Z M-4.26325641e-14,21.7960545 L10.2569677,21.7960545 L10.2569677,11.5390868 L-4.26325641e-14,11.5390868 L-4.26325641e-14,21.7960545 Z M2.56424798,14.1033348 L7.69271969,14.1033348 L7.69271969,19.2318065 L2.56424798,19.2318065 L2.56424798,14.1033348 Z M17.9496874,3.84636712 L15.3854394,3.84636712 L15.3854394,6.41059085 L17.9496874,6.41059085 L17.9496874,3.84636712 L17.9496874,3.84636712 Z M11.5390795,21.7960545 L14.1033033,21.7960545 L14.1033033,19.2318307 L11.5390795,19.2318307 L11.5390795,21.7960545 L11.5390795,21.7960545 Z M14.1033033,14.1033348 L14.1033033,19.2318065 L16.667527,19.2318065 L16.667527,14.1033348 L14.1033033,14.1033348 Z M19.231775,19.2318307 L16.6675512,19.2318307 L16.6675512,21.7960545 L21.796023,21.7960545 L21.796023,16.6675585 L19.2317992,16.6675585 L19.2317992,19.2318065 L19.231775,19.2318307 Z M19.231775,14.1033348 L21.7959987,14.1033348 L21.7959987,11.539111 L19.231775,11.539111 L19.231775,14.1033348 L19.231775,14.1033348 Z M11.5390795,11.539111 L11.5390795,14.1033348 L14.1033033,14.1033348 L14.1033033,11.539111 L11.5390795,11.539111 L11.5390795,11.539111 Z M3.84635984,17.9497189 L6.41058358,17.9497189 L6.41058358,15.3854951 L3.84635984,15.3854951 L3.84635984,17.9497189 Z" id="形状"></path>
                </g>
                <rect id="矩形" x="0" y="0" width="36" height="36"></rect>
            </g>
        </g>
    </g>
</svg>