
<svg width="31px" height="22px" viewBox="0 0 31 22" version="1.1" xmlns="http://www.w3.org/2000/svg" xmlns:xlink="http://www.w3.org/1999/xlink">
    <g id="页面1" stroke="none" stroke-width="1" fill="none" fill-rule="evenodd">
        <g id="团队学习详情页-导师端备份-2" transform="translate(-20.000000, -389.000000)">
            <g id="喇叭" transform="translate(20.000000, 389.000000)">
                <path d="M1.76837236,11.1179842 L0.803183544,11.1179842 L0.80318354,11.1179842 C0.517039262,11.1183912 0.284743484,10.8867556 0.284334743,10.6006114 C0.284334743,10.6001194 0.284334743,10.5996275 0.284334743,10.5991356 L0.284334743,9.07061294 L0.284334743,9.07061261 C0.28392795,8.78446833 0.515563283,8.55217255 0.801707561,8.55176382 C0.802199474,8.55176382 0.802691388,8.55176382 0.803183301,8.55176382 L1.76837236,8.55176382 L1.76837236,11.1179842 Z" id="路径" fill="#BD1B16" fill-rule="nonzero"></path>
                <path d="M2.32875209,11.9130998 L1.61819211,11.9130998 L1.61819208,11.9130998 C1.29241124,11.9130998 1.02831425,11.6490028 1.02831425,11.3232198 L1.02831425,8.34924175 L1.02831425,8.34924166 C1.02831425,8.02346081 1.29241124,7.75936382 1.61819423,7.75936382 L2.32875209,7.75936382 L2.32875209,11.9130998 Z" id="路径" fill="#2D416C" fill-rule="nonzero"></path>
                <polygon id="路径" fill="#88C6F4" fill-rule="nonzero" points="19.0220858 19.671976 8.92214045 13.9231158 8.92214045 5.74886021 19.0220858 0.0012246108"></polygon>
                <polygon id="路径" fill="#5DABE5" fill-rule="nonzero" points="19.0220858 0.00122890768 20.0220858 0.00122890768 20.0220858 19.6719803 19.0220858 19.6719803"></polygon>
                <polygon id="路径" fill="#88C6F4" fill-rule="nonzero" points="6.64494444 22.0000256 4.60494695 22.0000256 3.5161283 11.9130998 7.73596524 11.9130998"></polygon>
                <path d="M8.92214045,13.9231369 L4.80085245,13.9231369 L4.80085247,13.9231369 C3.4347046,13.9229801 2.32728905,12.8154596 2.32728905,11.4493161 L2.32728905,8.22046855 L2.32728905,8.22046819 C2.32728905,6.85432031 3.4347003,5.74679734 4.80085247,5.74666843 L8.91992758,5.74666843 L8.91992758,13.9231369 L8.92214045,13.9231369 Z" id="路径" fill="#1A7FBC" fill-rule="nonzero"></path>
                <polygon id="路径" fill="#0A78CB" fill-rule="nonzero" points="5.62471474 11.9130998 5.62471474 22.0000256 6.64495948 22.0000256 7.73598888 11.9130998"></polygon>
                <path d="M8.92214045,13.9231159 L4.69712577,13.9231159 L4.69712581,13.9231159 C3.38938542,13.9233873 2.3290293,12.8634751 2.32877144,11.5557283 C2.32877144,11.5556463 2.32877144,11.5555644 2.32877144,11.5554824 L2.32877144,8.11649602 L2.32877144,8.11674143 C2.32877144,6.8091944 3.38860549,5.74913907 4.69615896,5.74885977 L8.92117364,5.74885977 L8.92214045,13.9231159 Z" id="路径" fill="#009BE4" fill-rule="nonzero"></path>
                <polygon id="路径" fill="#1593F1" fill-rule="nonzero" points="5.62471474 5.74886021 8.92214045 5.74886021 8.92214045 13.9253287 5.62471474 13.9253287"></polygon>
                <path d="M23.1632536,5.05132191 L23.1529411,5.04111682 C23.0395035,4.99009137 22.9363783,4.96968119 22.8229407,4.96968119 C22.5238779,4.96968119 22.224815,5.14316772 22.0804399,5.42891024 C21.8845021,5.82690875 22.0598148,6.31675307 22.4620028,6.52085487 C22.6373155,6.61270068 24.1326297,7.43931297 24.1326297,9.69463786 C24.1326297,10.960069 23.7304418,11.7866813 23.3901289,12.2561155 C23.0188784,12.776575 22.627003,12.9908819 22.5857529,13.0112921 L22.5754404,13.0112921 C22.1732525,13.2153939 21.9979398,13.7052382 22.20419,14.1032367 C22.3485652,14.3787742 22.627003,14.5522607 22.9466909,14.5522607 C23.070441,14.5522607 23.1941911,14.5216454 23.3179413,14.4604149 C23.4210664,14.4093894 25.7826317,13.1847786 25.7826317,9.68443277 C25.7723191,6.31675307 23.2766912,5.10234736 23.1632536,5.05132191 Z" id="路径" fill="#1593F1"></path>
                <path d="M26.7210703,2.12246108 C26.5870076,2.04082036 26.4323199,2 26.2879447,2 C26.0198194,2 25.7516941,2.13266617 25.5866939,2.37758833 C25.3391936,2.75517666 25.4423188,3.25522607 25.8238817,3.50014823 C25.9373193,3.57158386 28.5876349,5.35747461 28.5876349,9.77627858 C28.5876349,11.5927846 28.1441969,13.2358041 27.3088834,14.5318505 C26.6488827,15.5625646 25.9682569,16.0319987 25.9373193,16.0524089 C25.5557564,16.2973311 25.4526313,16.8075856 25.7104441,17.1851739 C25.8651318,17.4096859 26.1229446,17.5525572 26.3910699,17.5525572 C26.5560701,17.5525572 26.7107577,17.5015317 26.8448204,17.4096859 C26.8860704,17.3892757 27.7316964,16.8177907 28.5773224,15.5727697 C29.6704487,13.9501604 30.2273479,12.0009882 30.2273479,9.77627858 C30.2376368,4.40840124 26.8654454,2.2041018 26.7210703,2.12246108 L26.7210703,2.12246108 Z" id="路径" fill="#0A78CB"></path>
            </g>
        </g>
    </g>
</svg>