
<svg width="18px" height="16px" viewBox="0 0 18 16" version="1.1" xmlns="http://www.w3.org/2000/svg" xmlns:xlink="http://www.w3.org/1999/xlink">
    <g id="页面-1" stroke="none" stroke-width="1" fill="none" fill-rule="evenodd">
        <g id="06搜素结果_无结果" transform="translate(-19.000000, -578.000000)" fill="#FFCA00" fill-rule="nonzero">
            <g id="编组-2备份" transform="translate(0.000000, 400.000000)">
                <g id="编组" transform="translate(16.000000, 174.000000)">
                    <g id="编组-6">
                        <path d="M11.8661488,10.2035075 L20.1081014,10.2035075 C20.3563058,10.2035075 20.6020392,10.3029816 20.7817488,10.4951159 C20.9773466,10.7049654 21.0341903,11.0027061 20.9812302,11.2800074 L19.4789389,19.1650429 L19.478939,19.1650428 C19.3861824,19.6494224 18.9479054,20.0006307 18.4373971,19.9996722 L7.32574043,19.9996722 L7.32574039,19.9996722 C6.74076492,19.9996722 6.26654556,19.5421083 6.26654556,18.9776753 L6.26654556,10.4419809 C6.26654556,10.2859565 6.31032569,10.132997 6.39294257,9.99877645 C8.54169302,6.51615604 9.84804166,4.54235815 10.3119686,4.07733488 C10.347275,4.04156517 10.4461331,3.99966326 10.5460504,4.00000204 C10.6459678,4.00000204 10.7472974,4.04360908 10.7720118,4.05314788 C11.4671972,4.32908627 13.0175022,5.48734727 11.86616,10.2038435 L11.8661488,10.2035075 Z M3,11.0701577 L3,11.0701575 C3,10.5915194 3.40213541,10.2035074 3.89819568,10.2035074 L3.96845549,10.2035074 L3.96845548,10.2035074 C4.46451575,10.2035074 4.86665118,10.5915194 4.86665118,11.0701575 C4.86665118,11.0701575 4.86665118,11.0701575 4.86665118,11.0701576 L4.86665118,19.1336907 L4.86665118,19.1336492 C4.86647995,19.6121533 4.46441895,20 3.9684977,20 L3.89788487,20 L3.89788491,20 C3.4021002,19.999812 3.00023538,19.6120622 3.00004174,19.13369 L3.00004174,11.0701568 L3,11.0701577 Z" id="形状"></path>
                    </g>
                </g>
            </g>
        </g>
    </g>
</svg>