
<svg width="16px" height="18px" viewBox="0 0 16 18" version="1.1" xmlns="http://www.w3.org/2000/svg" xmlns:xlink="http://www.w3.org/1999/xlink">
    <g id="设计稿" stroke="none" stroke-width="1" fill="none" fill-rule="evenodd">
        <g id="07多选题" transform="translate(-317.000000, -311.000000)">
            <g id="编组-3" transform="translate(315.000000, 310.000000)">
                <rect id="矩形" x="0" y="0" width="20" height="20"></rect>
                <g id="NO" transform="translate(2.000000, 1.000000)" fill="#F14334" fill-rule="nonzero">
                    <path d="M13.4309357,13.6638451 C13.4309357,13.6638451 12.0155434,11.3609322 9.38778646,8.7196401 C11.5727499,5.71483192 14.0632216,2.47412502 16.0973646,0.33750144 C13.3091191,1.28109629 10.2076312,4.00940024 7.4812608,6.95233336 C5.7912979,5.50793714 3.76682288,4.09061128 1.4368397,3.00393032 C0.618928596,3.89725168 1.36916384,2.70228935 0.10459206,5.67035921 C1.21060897,5.92172669 3.26022073,7.39125965 5.48192254,9.21850787 C2.3552978,12.9194106 0.10459206,16.330274 0.10459206,16.330274 L4.10326859,16.330274 C4.10326859,16.330274 5.60567268,14.0486307 7.69008917,11.0921624 C11.3271832,14.2729278 14.7631833,17.6625216 14.7631833,17.6625216 L13.4309357,13.6638451 L13.4309357,13.6638451 Z" id="路径"></path>
                </g>
            </g>
        </g>
    </g>
</svg>