
<svg width="20px" height="14px" viewBox="0 0 20 14" version="1.1" xmlns="http://www.w3.org/2000/svg" xmlns:xlink="http://www.w3.org/1999/xlink">
    <g id="页面-1" stroke="none" stroke-width="1" fill="none" fill-rule="evenodd">
        <g id="03搜索结果" transform="translate(-18.000000, -729.000000)">
            <g id="编组-2备份-2" transform="translate(0.000000, 604.000000)">
                <g id="基础/课程列表/2" transform="translate(0.000000, 52.000000)">
                    <g id="编组-6" transform="translate(16.000000, 68.000000)">
                        <rect id="矩形" x="0" y="0" width="24" height="24"></rect>
                        <g id="eye" transform="translate(2.000000, 5.000000)" fill="#D9D9D9" fill-rule="nonzero">
                            <path d="M10,0 C5.45454955,0 1.57245799,2.90186125 0,7 C1.57244897,11.0981387 5.45454955,14 10,14 C14.5500696,14 18.427542,11.0981387 20,7 C18.427551,2.90186125 14.5500696,0 10,0 Z M10,11.6666749 L9.99999977,11.6666749 C7.49014177,11.6653595 5.45583368,9.57678756 5.45454917,7 L5.45454917,7.00118382 C5.45454917,4.42411635 7.48872883,2.33463282 9.99885046,2.33333734 L9.99885035,2.33333734 C12.5094294,2.33333734 14.544819,4.42248313 14.54545,7.00000401 L14.54545,6.99991566 C14.5442245,9.57670553 12.5099409,11.66531 10.0000897,11.6666749 L10,11.6666749 Z M10,4.19999537 L9.99999987,4.19999537 C8.49429688,4.20130162 7.27400945,5.45413891 7.27272509,7 L7.27272509,7.00000231 C7.27399865,8.54585877 8.49429463,9.79868832 9.99999987,9.80000693 L9.9999998,9.80000693 C11.5057005,9.79869953 12.7259902,8.54586109 12.7272746,7.00000231 L12.7272746,7.00000005 C12.7260012,5.45414358 11.505705,4.20131403 9.99999979,4.19999537 L10,4.19999537 Z" id="形状"></path>
                        </g>
                    </g>
                </g>
            </g>
        </g>
    </g>
</svg>