
<svg width="20px" height="20px" viewBox="0 0 20 20" version="1.1" xmlns="http://www.w3.org/2000/svg" xmlns:xlink="http://www.w3.org/1999/xlink">
    <defs>
        <path d="M5.1277704,-2.07168062e-16 L14.8722296,2.07168062e-16 C16.6552671,-1.2037061e-16 17.3018396,0.185651222 17.9536914,0.534265408 C18.6055433,0.882879593 19.1171204,1.39445674 19.4657346,2.04630859 C19.8143488,2.69816044 20,3.34473292 20,5.1277704 L20,14.8722296 C20,16.6552671 19.8143488,17.3018396 19.4657346,17.9536914 C19.1171204,18.6055433 18.6055433,19.1171204 17.9536914,19.4657346 C17.3018396,19.8143488 16.6552671,20 14.8722296,20 L5.1277704,20 C3.34473292,20 2.69816044,19.8143488 2.04630859,19.4657346 C1.39445674,19.1171204 0.882879593,18.6055433 0.534265408,17.9536914 C0.185651222,17.3018396 8.02470732e-17,16.6552671 -1.38112041e-16,14.8722296 L1.38112041e-16,5.1277704 C-8.02470732e-17,3.34473292 0.185651222,2.69816044 0.534265408,2.04630859 C0.882879593,1.39445674 1.39445674,0.882879593 2.04630859,0.534265408 C2.69816044,0.185651222 3.34473292,1.2037061e-16 5.1277704,-2.07168062e-16 Z" id="path-1"></path>
    </defs>
    <g id="设计稿" stroke="none" stroke-width="1" fill="none" fill-rule="evenodd">
        <g id="10有进行中的学习清单" transform="translate(-32.000000, -672.000000)">
            <g id="编组-5备份-3" transform="translate(16.000000, 661.000000)">
                <g id="Corners备份" transform="translate(16.000000, 11.000000)">
                    <mask id="mask-2" fill="white">
                        <use xlink:href="#path-1"></use>
                    </mask>
                    <use id="▪︎-Bitmap" fill="#FFCC00" xlink:href="#path-1"></use>
                    <g id="pen" mask="url(#mask-2)" fill="#FFFFFF" fill-rule="nonzero">
                        <g transform="translate(4.000000, 4.000000)" id="形状">
                            <path d="M0.181820509,11.8818341 L0.181820509,8.18182982 L6.08182737,2.08182272 L9.68183156,5.78182703 L3.48182435,11.8818341 L0.181820509,11.8818341 Z M11.6818339,3.53982442 L10.3178323,5.00282612 L6.66082805,1.59282215 L8.02482964,0.129820449 L11.6818339,3.53982442 Z"></path>
                        </g>
                    </g>
                </g>
            </g>
        </g>
    </g>
</svg>