<?xml version="1.0" encoding="UTF-8"?>
<svg width="24px" height="20px" viewBox="0 0 24 20" version="1.1" xmlns="http://www.w3.org/2000/svg" xmlns:xlink="http://www.w3.org/1999/xlink">
    <!-- Generator: Sketch 55.2 (78181) - https://sketchapp.com -->
    <title>Training camp-icon-comment</title>
    <desc>Created with Sketch.</desc>
    <g id="页面1" stroke="none" stroke-width="1" fill="none" fill-rule="evenodd">
        <g id="团队学习详情页-学员端" transform="translate(-16.000000, -1063.000000)">
            <g id="编组-9" transform="translate(16.000000, 1060.000000)">
                <g id="Training-camp-icon-comment">
                    <path d="M2.91138851,3 L21.0886115,3 C22.696527,3 24,4.27592516 24,5.8498586 L24,17.1145344 C24,18.6884678 22.696527,19.964393 21.0886115,19.964393 L15.1176563,19.964393 L12,23 L8.76243739,19.964393 L2.91138851,19.964393 C1.30347304,19.964393 0,18.6884678 0,17.1145344 L0,5.8498586 C0,4.27592516 1.30347304,3 2.91138851,3 Z M14.3748695,18.2024346 L21.0886115,18.2024346 C21.7024144,18.2024346 22.2,17.7153651 22.2,17.1145344 L22.2,5.8498586 C22.2,5.24902792 21.7024144,4.76195841 21.0886115,4.76195841 L2.91138851,4.76195841 C2.29758558,4.76195841 1.8,5.24902792 1.8,5.8498586 L1.8,17.1145344 C1.8,17.7153651 2.29758558,18.2024346 2.91138851,18.2024346 L9.48543304,18.2024346 L11.9762767,20.5379021 L14.3748695,18.2024346 Z M6,13.0050944 C5.17157288,13.0050944 4.5,12.3477147 4.5,11.5367958 C4.5,10.7258768 5.17157288,10.0684971 6,10.0684971 C6.82842712,10.0684971 7.5,10.7258768 7.5,11.5367958 C7.5,12.3477147 6.82842712,13.0050944 6,13.0050944 Z M12,12.984431 C11.1715729,12.984431 10.5,12.3270513 10.5,11.5161323 C10.5,10.7052134 11.1715729,10.0478336 12,10.0478336 C12.8284271,10.0478336 13.5,10.7052134 13.5,11.5161323 C13.5,12.3270513 12.8284271,12.984431 12,12.984431 Z M18,13.0050944 C17.1715729,13.0050944 16.5,12.3477147 16.5,11.5367958 C16.5,10.7258768 17.1715729,10.0684971 18,10.0684971 C18.8284271,10.0684971 19.5,10.7258768 19.5,11.5367958 C19.5,12.3477147 18.8284271,13.0050944 18,13.0050944 Z" id="形状结合" fill="#2E2E2E" fill-rule="nonzero"></path>
                    <rect id="矩形" x="0" y="0" width="24" height="24"></rect>
                </g>
            </g>
        </g>
    </g>
</svg>