<?xml version="1.0" encoding="UTF-8"?>
<svg width="28px" height="28px" viewBox="0 0 28 28" version="1.1" xmlns="http://www.w3.org/2000/svg" xmlns:xlink="http://www.w3.org/1999/xlink">
    <!-- Generator: Sketch 59 (86127) - https://sketch.com -->
    <title>会员页面入口</title>
    <desc>Created with Sketch.</desc>
    <defs>
        <filter x="-34.3%" y="-45.9%" width="168.5%" height="191.8%" filterUnits="objectBoundingBox" id="filter-1">
            <feOffset dx="5" dy="15" in="SourceAlpha" result="shadowOffsetOuter1"></feOffset>
            <feGaussianBlur stdDeviation="23" in="shadowOffsetOuter1" result="shadowBlurOuter1"></feGaussianBlur>
            <feColorMatrix values="0 0 0 0 0   0 0 0 0 0   0 0 0 0 0  0 0 0 0.1 0" type="matrix" in="shadowBlurOuter1" result="shadowMatrixOuter1"></feColorMatrix>
            <feMerge>
                <feMergeNode in="shadowMatrixOuter1"></feMergeNode>
                <feMergeNode in="SourceGraphic"></feMergeNode>
            </feMerge>
        </filter>
    </defs>
    <g id="页面-1" stroke="none" stroke-width="1" fill="none" fill-rule="evenodd">
        <g id="会员页面入口" transform="translate(-36.000000, -330.000000)">
            <g id="编组-8" filter="url(#filter-1)" transform="translate(16.000000, 306.000000)">
                <g id="my_list-copy-14" transform="translate(4.000000, 8.000000)">
                    <g id="编组-12" transform="translate(16.000000, 16.000000)">
                        <g id="界面/个人中心/icons/我的技能成就">
                            <rect id="Rectangle" fill="#FFC700" x="0" y="0" width="28" height="28" rx="7"></rect>
                            <g id="crown">
                                <rect id="Rectangle-3" x="0" y="0" width="28" height="28" rx="6"></rect>
                                <g id="Group-4" transform="translate(5.000000, 6.000000)" fill="#FFFFFF" fill-rule="nonzero">
                                    <g id="king" transform="translate(0.000000, 0.833333)">
                                        <path d="M0,4.22757337 L0.0659340659,4.07854771 C0.21978022,3.6527601 0.593406593,3.35470877 1.07692308,3.33341939 C1.51648352,3.31213001 1.93406593,3.54631319 2.13186813,3.92952205 C2.32967033,4.3127309 2.28571429,4.78109727 1.97802198,5.12172736 C1.93406593,5.16430612 1.91208791,5.20688489 1.86813187,5.24946365 C2.7032967,5.7391194 3.53846154,6.22877516 4.35164835,6.71843091 C4.65934066,6.91003534 4.98901099,7.10163977 5.2967033,7.27195481 C5.47252747,7.37840172 5.6043956,7.33582295 5.71428571,7.16550791 C6.65934066,5.48364683 7.62637363,3.80178576 8.57142857,2.11992469 C8.15384615,1.90703088 7.89010989,1.60897955 7.86813187,1.14061318 C7.84615385,0.821272465 7.97802198,0.544510517 8.1978022,0.310327329 C8.65934066,-0.136749665 9.42857143,-0.0941709039 9.84615385,0.395484852 C10.3296703,0.94900875 10.1538462,1.60897955 9.40659341,2.11992469 C9.64835165,2.5457123 9.89010989,2.9927893 10.1538462,3.41857691 C10.8351648,4.63207161 11.5384615,5.84556631 12.2197802,7.08035039 C12.3736264,7.35711233 12.4835165,7.37840172 12.7692308,7.22937605 C13.8461538,6.59069463 14.9010989,5.97330259 15.978022,5.33462117 C16.021978,5.31333179 16.0659341,5.27075303 16.1318681,5.24946365 C15.9120879,5.03656984 15.7802198,4.80238665 15.7582418,4.50433532 C15.7362637,3.95081143 16.1318681,3.46115567 16.6813187,3.37599815 C17.2527473,3.26955124 17.8021978,3.58889195 17.956044,4.14241585 C17.978022,4.18499461 17.978022,4.22757337 18,4.27015214 L18,4.65336099 C17.8241758,5.20688489 17.4505495,5.54751498 16.8131868,5.54751498 C16.7912088,5.61138312 16.7692308,5.67525126 16.7472527,5.7391194 C16.1318681,7.80418933 15.4945055,9.89054864 14.8791209,11.9769079 C14.7912088,12.2536699 14.7032967,12.317538 14.4175824,12.317538 L3.62637363,12.317538 C3.31868132,12.317538 3.23076923,12.2536699 3.14285714,11.9769079 C2.63736264,10.2950469 2.13186813,8.6131858 1.62637363,6.91003534 C1.49450549,6.46295835 1.34065934,5.99459197 1.20879121,5.54751498 C0.725274725,5.54751498 0.373626374,5.35591055 0.153846154,4.9727017 C0.10989011,4.8662548 0.0659340659,4.75980789 0.021978022,4.65336099 C0,4.48304594 0,4.35530966 0,4.22757337 L0,4.22757337 L0,4.22757337 Z M9.01098901,13.3607177 L14.043956,13.3607177 C14.4835165,13.3607177 14.8571429,13.658769 14.9010989,14.0845566 C14.9450549,14.5103442 14.6593407,14.8722637 14.2417582,14.9787106 C14.1758242,15 14.1098901,15 14.043956,15 L3.95604396,15 C3.58241758,15 3.25274725,14.7871062 3.14285714,14.4464761 C3.03296703,14.105846 3.14285714,13.7226372 3.45054945,13.5310327 C3.6043956,13.4245858 3.82417582,13.3607177 4,13.3607177 C5.67032967,13.3607177 7.34065934,13.3607177 9.01098901,13.3607177 L9.01098901,13.3607177 L9.01098901,13.3607177 L9.01098901,13.3607177 Z" id="形状"></path>
                                    </g>
                                </g>
                            </g>
                        </g>
                    </g>
                </g>
            </g>
        </g>
    </g>
</svg>