
<svg width="20px" height="14px" viewBox="0 0 20 14" version="1.1" xmlns="http://www.w3.org/2000/svg" xmlns:xlink="http://www.w3.org/1999/xlink">
    <g id="设计稿" stroke="none" stroke-width="1" fill="none" fill-rule="evenodd">
        <g id="课程大厅备份" transform="translate(-250.000000, -513.000000)" fill-rule="nonzero">
            <g id="Group-18备份-7" transform="translate(0.000000, 496.000000)">
                <g id="Group-5">
                    <g id="编组-8" transform="translate(248.000000, 12.000000)">
                        <g id="hot" transform="translate(2.000000, 5.000000)">
                            <path d="M4.89038053,-1.38717589e-05 L19.5614959,-1.38717589e-05 L19.5614959,8.5581528 L19.5614959,8.5581528 C19.5614959,11.2590359 17.3719985,13.4485333 14.6711153,13.4485333 C14.6711153,13.4485333 14.6711153,13.4485333 14.6711153,13.4485333 L4.8903674,13.4485333 L4.89036719,13.4485333 C2.18948405,13.4485333 -1.3347098e-05,11.2590359 -1.3347098e-05,8.5581528 C-1.3347098e-05,8.5581528 -1.3347098e-05,8.5581528 -1.3347098e-05,8.5581528 L-1.3347098e-05,4.8903674 L-1.3347098e-05,4.89036666 C-1.3347098e-05,2.18948353 2.18948405,-1.38717589e-05 4.89036719,-1.38717589e-05 L4.89038053,-1.38717589e-05 Z" id="路径" fill="#FF9012"></path>
                            <path d="M7.3551329,9.78074793 L6.08362923,9.78074793 L6.08362923,6.67047253 C6.08362923,5.99560044 5.65327617,5.77064351 5.25226559,5.77064351 C4.85125502,5.77064351 4.43068235,6.00538215 4.43068235,6.67047253 L4.43068235,9.78074793 L3.15918525,9.78074793 L3.15918525,2.81685047 L4.43068235,2.81685047 L4.43068235,5.15445247 C4.77300925,4.80234517 5.20336231,4.62629153 5.65327617,4.62629153 C6.76828172,4.62629153 7.3551329,5.40875189 7.3551329,6.48463193 L7.3551329,9.78074793 L7.3551329,9.78074793 Z M12.8225724,7.2279694 C12.8225724,8.15714091 12.7052033,8.73420513 12.2455082,9.21346673 C11.9325238,9.54601193 11.4141445,9.83943423 10.661024,9.83943423 C9.90790618,9.83943423 9.39930734,9.54601193 9.08632425,9.21346673 C8.62662869,8.73421039 8.50926003,8.15714617 8.50926003,7.2279694 C8.50926003,6.30857828 8.62662908,5.731518 9.08632425,5.2522564 C9.39930865,4.91971121 9.90790749,4.6262889 10.661024,4.6262889 C11.4141419,4.6262889 11.9325211,4.91971121 12.2455082,5.2522564 C12.7052037,5.73151275 12.8225724,6.30857697 12.8225724,7.2279694 L12.8225724,7.2279694 Z M11.5510754,7.2279694 C11.5510754,6.69980846 11.5217331,6.259675 11.257653,5.99559519 L11.257653,5.99559524 C11.0982525,5.84163054 10.8823983,5.76024328 10.6610267,5.77063831 L10.6610267,5.77063831 C10.4425458,5.76016461 10.2296795,5.84176332 10.0741821,5.99559524 C9.81010229,6.25967505 9.7807598,6.69980982 9.7807598,7.22796945 C9.7807598,7.75613039 9.81010203,8.20604424 10.0741821,8.47012537 C10.2208933,8.61683652 10.4067273,8.6950823 10.6610267,8.6950823 L10.6610268,8.6950823 C10.8823983,8.70547707 11.0982525,8.62408928 11.2576531,8.47012537 C11.5217329,8.20604556 11.5510754,7.75613039 11.5510754,7.22796945 L11.5510754,7.2279694 Z M16.3240832,9.78075056 L15.6296504,9.78075056 C14.5928906,9.78075056 14.1527545,9.04719217 14.1527545,8.32342073 L14.1527545,5.79998207 L13.6148132,5.79998207 L13.6148132,4.83168767 L14.1527545,4.83168767 L14.1527545,3.32545193 L15.4242516,3.32545193 L15.4242516,4.83168767 L16.3240832,4.83168767 L16.3240832,5.79998207 L15.4242516,5.79998207 L15.4242516,8.24517233 C15.4242516,8.53859464 15.5611823,8.70486789 15.864385,8.70486789 L16.3240832,8.70486789 L16.3240832,9.78075056 L16.3240832,9.78075056 Z" id="形状" fill="#FFFFFF"></path>
                        </g>
                    </g>
                </g>
            </g>
        </g>
    </g>
</svg>