<?xml version="1.0" encoding="UTF-8"?>
<svg width="36px" height="36px" viewBox="0 0 36 36" version="1.1" xmlns="http://www.w3.org/2000/svg" xmlns:xlink="http://www.w3.org/1999/xlink">
    <!-- Generator: Sketch 55.2 (78181) - https://sketchapp.com -->
    <title>编组 2</title>
    <desc>Created with Sketch.</desc>
    <g id="页面1" stroke="none" stroke-width="1" fill="none" fill-rule="evenodd">
        <g id="今日备份" transform="translate(-36.000000, -213.000000)">
            <g id="编组-2" transform="translate(36.000000, 213.000000)">
                <polygon id="矩形" fill="#FF3B30" points="0 0 36 0 36 36 18 28 0 36"></polygon>
                <path d="M7.24329407,8.568 L11.1432941,8.568 L11.1432941,9.468 C10.7832941,10.5 10.3632941,11.58 9.88329407,12.72 C10.6392941,13.824 11.0472941,14.784 11.0952941,15.612 C11.0952941,16.164 10.9752941,16.572 10.7352941,16.812 C10.3752941,17.112 9.76329407,17.268 8.87529407,17.28 L8.50329407,16.128 C8.74329407,16.164 8.94729407,16.188 9.11529407,16.188 C9.45129407,16.164 9.66729407,16.116 9.78729407,16.044 C9.89529407,15.96 9.95529407,15.816 9.95529407,15.612 C9.95529407,14.796 9.54729407,13.896 8.73129407,12.888 C9.27129407,11.688 9.69129407,10.596 10.0032941,9.636 L8.35929407,9.636 L8.35929407,19.248 L7.24329407,19.248 L7.24329407,8.568 Z M12.6672941,11.784 L12.6672941,12.876 L15.8472941,12.876 L15.8472941,11.784 L12.6672941,11.784 Z M15.8472941,10.752 L15.8472941,9.636 L12.6672941,9.636 L12.6672941,10.752 L15.8472941,10.752 Z M13.7952941,13.92 L12.6672941,13.92 L12.6672941,17.652 C13.3152941,17.46 13.9512941,17.22 14.5752941,16.932 L14.8392941,17.988 C13.9632941,18.348 12.8592941,18.708 11.5272941,19.056 L11.2512941,18.06 C11.4432941,17.988 11.5512941,17.88 11.5512941,17.724 L11.5512941,8.556 L16.9632941,8.556 L16.9632941,13.92 L14.8152941,13.92 C14.9352941,14.532 15.1512941,15.096 15.4392941,15.624 C15.9672941,15.312 16.4712941,14.868 16.9512941,14.292 L17.6832941,15.024 C17.1792941,15.624 16.6032941,16.092 15.9672941,16.428 C16.4712941,17.088 17.1432941,17.664 17.9712941,18.144 L17.3352941,19.152 C15.3672941,17.868 14.1792941,16.128 13.7952941,13.92 Z M20.468,12 C20.252,12.156 20.024,12.312 19.796,12.456 L19.076,11.58 C20.492,10.74 21.692,9.588 22.7,8.1 L23.852,8.352 C23.684,8.616 23.504,8.868 23.324,9.12 L27.332,9.12 L27.332,9.984 C26.9,10.524 26.48,10.992 26.06,11.376 L28.808,11.376 L28.808,15.228 L26.096,15.228 L26.096,17.412 C26.096,17.772 26.24,17.952 26.54,17.952 L28.364,17.952 C28.532,17.952 28.652,17.868 28.724,17.724 C28.82,17.556 28.88,17.064 28.904,16.236 L29.984,16.584 C29.888,17.784 29.744,18.492 29.528,18.732 C29.324,18.948 29.012,19.056 28.58,19.056 L26.192,19.056 C25.364,19.056 24.956,18.588 24.956,17.652 L24.956,15.228 L24.536,15.228 C24.464,15.444 24.38,15.648 24.284,15.84 C23.66,17.208 22.184,18.36 19.832,19.272 L19.112,18.384 C21.176,17.616 22.52,16.668 23.168,15.552 C23.216,15.432 23.276,15.324 23.324,15.228 L20.468,15.228 L20.468,12 Z M24.632,11.376 C25.04,11.016 25.448,10.608 25.856,10.152 L22.496,10.152 C22.088,10.596 21.68,11.004 21.248,11.376 L24.632,11.376 Z M27.716,14.16 L27.716,12.432 L25.052,12.432 C25.028,13.056 24.956,13.632 24.848,14.16 L27.716,14.16 Z M23.672,14.16 C23.792,13.632 23.876,13.056 23.912,12.432 L21.572,12.432 L21.572,14.16 L23.672,14.16 Z" id="限免" fill="#FFFFFF" fill-rule="nonzero"></path>
            </g>
        </g>
    </g>
</svg>