
<svg width="16px" height="21px" viewBox="0 0 16 21" version="1.1" xmlns="http://www.w3.org/2000/svg" xmlns:xlink="http://www.w3.org/1999/xlink">
    <defs>
        <path d="M8,0 C10.9146062,0 13.2773613,2.23003529 13.2773613,4.98092323 L13.277,6.653 L13.310736,6.65446655 C14.8105524,6.74136791 16,7.98515838 16,9.50675923 L16,17.1428571 C16,18.7208136 14.7208136,20 13.1428571,20 L2.85714286,20 C1.27918643,20 -1.03279542e-13,18.7208136 -1.03916875e-13,17.1428571 L-1.03916875e-13,9.50675923 C-1.04104573e-13,7.97408854 1.20681732,6.72328514 2.72204704,6.65275393 L2.72263868,4.98092323 C2.72263868,2.23003529 5.08539382,0 8,0 Z M8,1.66030774 C6.05692922,1.66030774 4.48175912,3.14699794 4.48175912,4.98092323 L4.481,6.649 L11.518,6.649 L11.5182409,4.98092323 C11.5182409,3.14699794 9.94307078,1.66030774 8,1.66030774 Z" id="path-1"></path>
    </defs>
    <g id="新人福利" stroke="none" stroke-width="1" fill="none" fill-rule="evenodd">
        <g id="有进行中的学习清单" transform="translate(-323.000000, -590.000000)">
            <g id="编组-5备份-2" transform="translate(16.000000, 518.000000)">
                <g id="编组-3" transform="translate(303.000000, 71.000000)">
                    <g id="_Glyphs-/-xSmall-/-Block" transform="translate(4.000000, 1.500000)">
                        <mask id="mask-2" fill="white">
                            <use xlink:href="#path-1"></use>
                        </mask>
                        <use id="Icon" fill="#D9D9D9" xlink:href="#path-1"></use>
                    </g>
                </g>
            </g>
        </g>
    </g>
</svg>