
<svg width="18px" height="24px" viewBox="0 0 18 24" version="1.1" xmlns="http://www.w3.org/2000/svg" xmlns:xlink="http://www.w3.org/1999/xlink">
    <defs>
        <path d="M25.3034369,15.6532847 L23.6621749,15.6532847 L23.6621749,11.8203044 C23.6621749,8.6103546 21.0644015,6 17.8682963,6 C14.6719332,6 12.071195,8.6103546 12.071195,11.8205365 L12.071195,15.6532331 L10.431686,15.6532331 C9.64105153,15.6532331 9,16.2965276 9,17.090591 L9,27.5848095 C9,28.3801104 9.64105153,29.0239205 10.431686,29.0239205 L25.3049065,29.0239205 C26.095541,29.0239205 26.7348652,28.380162 26.7348652,27.5848095 L26.7348652,17.090591 C26.7348652,16.296476 26.0940715,15.6532331 25.3031791,15.6532331 L25.3034369,15.6532847 Z M18.6720277,22.6112396 L18.6720277,24.9026798 L18.6720277,24.9026789 C18.6716242,25.0063774 18.5879835,25.0905128 18.4842892,25.0915276 L17.2536713,25.0915276 L17.2536713,25.0915276 C17.1495938,25.0909795 17.0653099,25.0068335 17.0645914,24.902757 L17.0645914,22.6112653 C16.4864978,22.3143165 16.0861145,21.7191815 16.0861145,21.0216174 C16.0861145,20.0345037 16.8839162,19.231752 17.8668275,19.231752 C18.8512341,19.231752 19.6492977,20.0344779 19.6492977,21.0213596 C19.6507632,21.7191815 19.2503799,22.3143423 18.6720542,22.6110075 L18.6720277,22.6112396 Z M21.4386426,15.6532847 L14.2975116,15.6532847 L14.2975116,11.91536 C14.2975116,9.93816786 15.9010041,8.32799802 17.8695595,8.32799802 C19.8383728,8.32799802 21.4389004,9.93814208 21.4389004,11.91536 L21.4389004,15.6532847 L21.4386426,15.6532847 Z" id="path-1"></path>
        <rect id="path-3" x="0" y="0" width="36" height="36"></rect>
    </defs>
    <g id="页面1" stroke="none" stroke-width="1" fill="none" fill-rule="evenodd">
        <g id="卡片备份-3" transform="translate(-179.000000, -491.000000)">
            <g id="编组-2">
                <g id="编组" transform="translate(0.000000, 485.000000)">
                    <g id="_Glyphs-/-Quick-Action-/-Locked" transform="translate(170.000000, 0.000000)">
                        <mask id="mask-2" fill="white">
                            <use xlink:href="#path-1"></use>
                        </mask>
                        <g id="锁" fill-rule="nonzero"></g>
                        <g id="_Styles-/-Fills-|-Glyph-/-Quick-Action---Color-Burn" mask="url(#mask-2)" fill-rule="evenodd">
                            <g id="Rectangle">
                                <use fill="#4D4D4D" style="mix-blend-mode: color-burn;" xlink:href="#path-3"></use>
                                <use fill-opacity="0.400000006" fill="#000000" xlink:href="#path-3"></use>
                            </g>
                        </g>
                    </g>
                </g>
            </g>
        </g>
    </g>
</svg>