
<svg width="86px" height="94px" viewBox="0 0 86 94" version="1.1" xmlns="http://www.w3.org/2000/svg" xmlns:xlink="http://www.w3.org/1999/xlink">
    <defs>
        <path d="M12.9534249,16.0071119 L66.8372289,16.0071119 C70.5857115,16.0071119 73.6244571,19.0458575 73.6244571,22.79434 L73.6244571,81.6039749 L73.6244571,81.6039749 L6.16619675,81.6039749 L6.16619675,22.79434 C6.16619675,19.0458575 9.20494229,16.0071119 12.9534249,16.0071119 Z" id="path-1"></path>
        <filter x="-23.7%" y="-16.8%" width="147.4%" height="148.8%" filterUnits="objectBoundingBox" id="filter-2">
            <feOffset dx="0" dy="5" in="SourceAlpha" result="shadowOffsetOuter1"></feOffset>
            <feGaussianBlur stdDeviation="4.5" in="shadowOffsetOuter1" result="shadowBlurOuter1"></feGaussianBlur>
            <feColorMatrix values="0 0 0 0 0   0 0 0 0 0   0 0 0 0 0  0 0 0 0.16 0" type="matrix" in="shadowBlurOuter1"></feColorMatrix>
        </filter>
        <linearGradient x1="50%" y1="0%" x2="50%" y2="100%" id="linearGradient-3">
            <stop stop-color="#FFF1B7" offset="0%"></stop>
            <stop stop-color="#F5DA90" offset="100%"></stop>
        </linearGradient>
    </defs>
    <g id="页面-1" stroke="none" stroke-width="1" fill="none" fill-rule="evenodd">
        <g id="奖励已发放" transform="translate(-145.000000, -288.000000)">
            <g id="编组-5" transform="translate(32.000000, 257.000000)">
                <g id="编组-8" transform="translate(96.000000, 16.000000)">
                    <rect id="矩形" x="0" y="0" width="120" height="120"></rect>
                    <g id="编组-13" transform="translate(20.000000, 13.000000)">
                        <g id="Group" transform="translate(0.000000, 0.000000)">
                            <path d="M0.0644786672,36.002286 L35.1336864,4.16147643 C37.7125491,1.82001846 41.6452356,1.81083312 44.2350077,4.14021903 L79.2833085,35.6646214 L79.2833085,35.6646214 L78.9371599,84.715919 L1.10122776,84.715919 L0.0644786672,36.002286 Z" id="Path" fill="#B3A677"></path>
                            <g id="Rectangle">
                                <use fill="black" fill-opacity="1" filter="url(#filter-2)" xlink:href="#path-1"></use>
                                <use fill="#FFFFFF" fill-rule="evenodd" xlink:href="#path-1"></use>
                            </g>
                            <path d="M43.1054653,34.530699 L34.899986,48.5389658 C34.7959468,48.7165798 34.6055368,48.8257168 34.3996949,48.8257168 L24.5000672,48.8257168 C24.1798517,48.8257168 23.9202658,48.5661309 23.9202658,48.2459154 L23.9202658,36.6988357 C23.9202658,36.3786202 24.1798517,36.1190343 24.5000672,36.1190343 L26.5634054,36.1190343 C26.8836209,36.1190343 27.1432069,36.3786202 27.1432069,36.6988357 L27.1432069,45.3591455 C27.1432069,45.5192532 27.2729998,45.6490462 27.4331076,45.6490462 L32.4807801,45.6490462 C32.686622,45.6490462 32.877032,45.5399092 32.9810711,45.3622951 L39.3257846,34.530699 L39.3257846,34.530699 L35.5020704,34.530699 C35.3419626,34.530699 35.2121696,34.400906 35.2121696,34.2407983 C35.2121696,34.1634415 35.2430864,34.0892931 35.2980414,34.0348502 L46.3897912,23.0464525 C46.5035332,22.9337704 46.6870861,22.9346296 46.7997682,23.0483716 C46.8535492,23.1026584 46.8837209,23.1759842 46.8837209,23.2524006 L46.8837209,33.9508976 C46.8837209,34.271113 46.624135,34.530699 46.3039195,34.530699 L43.1054653,34.530699 L43.1054653,34.530699 Z M53.9584046,48.8257168 L43.5289669,48.8257168 C43.3688592,48.8257168 43.2390662,48.6959238 43.2390662,48.5358161 C43.2390662,48.4861357 43.2518335,48.4372889 43.276143,48.3939623 L44.6501218,45.94514 C44.7527275,45.7622673 44.9460785,45.6490462 45.1557696,45.6490462 L51.0253642,45.6490462 C51.1854719,45.6490462 51.3152649,45.5192532 51.3152649,45.3591455 L51.3152649,39.6352411 C51.3152649,39.4751334 51.1854719,39.3453404 51.0253642,39.3453404 L46.6369037,39.3453404 C46.5336677,39.3453404 46.4382208,39.4002407 46.3863134,39.4894779 L36.6879379,56.162547 C36.5841576,56.3409619 36.3933532,56.4507534 36.1869501,56.450822 L33.1694579,56.4518263 C33.0093502,56.4518795 32.8795141,56.3221298 32.8794608,56.1620221 C32.8794436,56.1104832 32.8931665,56.0598715 32.9192159,56.0154004 L44.4057398,36.4057853 C44.509779,36.2281713 44.7001889,36.1190343 44.9060309,36.1190343 L53.9584046,36.1190343 C54.27862,36.1190343 54.538206,36.3786202 54.538206,36.6988357 L54.538206,48.2459154 C54.538206,48.5661309 54.27862,48.8257168 53.9584046,48.8257168 Z" id="Combined-Shape-Copy-14" fill="#EDD599"></path>
                            <polygon id="Path" fill="url(#linearGradient-3)" points="0.0644786672 91.9799499 79.2833085 91.9799499 51.2809021 65.6472016 28.2145073 65.6472016"></polygon>
                            <polygon id="Path" fill="#DECB91" points="0.122170106 91.961285 0.122170106 37.4886889 28.2671083 65.6472016"></polygon>
                            <polygon id="Path" fill="#DECB91" points="79.3257287 91.961285 79.3257287 37.4886889 51.2809021 65.6472016"></polygon>
                        </g>
                    </g>
                </g>
            </g>
        </g>
    </g>
</svg>