
<svg width="26px" height="27px" viewBox="0 0 26 27" version="1.1" xmlns="http://www.w3.org/2000/svg" xmlns:xlink="http://www.w3.org/1999/xlink">
    <defs>
        <filter x="-33.3%" y="-33.3%" width="166.7%" height="166.7%" filterUnits="objectBoundingBox" id="filter-1">
            <feOffset dx="0" dy="2" in="SourceAlpha" result="shadowOffsetOuter1"></feOffset>
            <feGaussianBlur stdDeviation="2" in="shadowOffsetOuter1" result="shadowBlurOuter1"></feGaussianBlur>
            <feColorMatrix values="0 0 0 0 0   0 0 0 0 0   0 0 0 0 0  0 0 0 0.16 0" type="matrix" in="shadowBlurOuter1" result="shadowMatrixOuter1"></feColorMatrix>
            <feMerge>
                <feMergeNode in="shadowMatrixOuter1"></feMergeNode>
                <feMergeNode in="SourceGraphic"></feMergeNode>
            </feMerge>
        </filter>
    </defs>
    <g id="页面-1" stroke="none" stroke-width="1" fill="none" fill-rule="evenodd">
        <g id="弹窗收起为悬浮状态" transform="translate(-328.000000, -106.000000)" fill="#FFFFFF" fill-rule="nonzero">
            <g id="gift" filter="url(#filter-1)" transform="translate(323.000000, 100.000000)">
                <path d="M17.5749987,15.7857161 L17.5749987,26.5 L11.9690236,26.5 L11.9690236,26.5 C11.0748482,26.5 10.3499715,25.77319 10.3499715,24.8766221 L10.3499715,17.4090941 L10.3499715,17.4090943 C10.3499715,16.5125299 11.0748448,15.7857161 11.9690201,15.7857161 L17.5749987,15.7857161 L17.5749987,15.7857161 Z M18.4250015,15.7857161 L24.0309765,15.7857161 L24.0309766,15.7857161 C24.9251519,15.7857161 25.6500287,16.5125261 25.6500287,17.4090941 L25.6500287,24.8766221 L25.6500287,24.8766221 C25.6500287,25.7731865 24.9251554,26.5 24.0309766,26.5 L18.4250015,26.5 L18.4250015,15.7857161 L18.4250015,15.7857161 Z M17.5749987,11.928574 L17.5749987,14.928574 L10.9960027,14.928574 L10.9960027,14.928574 C10.1697819,14.928574 9.5,14.257002 9.5,13.428574 C9.5,12.6001454 10.1697819,11.928574 10.9960027,11.928574 L17.5749987,11.928574 L17.5749987,11.928574 Z M18.4250014,11.928574 L25.0039974,11.928574 L25.0039973,11.928574 C25.8302181,11.928574 26.5,12.6001454 26.5,13.428574 C26.5,14.257002 25.8302181,14.928574 25.0039973,14.928574 L18.4250014,14.928574 L18.4250014,11.928574 L18.4250014,11.928574 Z M18.0000001,10.7930238 L21.3328149,8.64205109 L21.3328149,8.64205109 C21.4780407,8.54888391 21.6469323,8.49957449 21.8193393,8.50000277 C22.2912925,8.50000277 22.6733875,8.85714836 22.6741979,9.29546093 L22.6750075,10.2776036 C22.6750075,10.7159162 22.2937195,11.0722463 21.8225767,11.0714351 L17.9999922,11.0673752 L14.1774076,11.0714351 C13.7062648,11.0714351 13.3241664,10.7167253 13.3249756,10.2776036 L13.3257864,9.29546093 C13.3257864,8.85714836 13.7086918,8.50000277 14.180645,8.50000277 C14.3546931,8.50000277 14.5238839,8.54870673 14.6663589,8.6412395 L17.9999842,10.7922122 L18.0000001,10.7930238 Z" id="形状"></path>
            </g>
        </g>
    </g>
</svg>