
<svg width="159px" height="112px" viewBox="0 0 159 112" version="1.1" xmlns="http://www.w3.org/2000/svg" xmlns:xlink="http://www.w3.org/1999/xlink">
    <defs>
        <path d="M20.9774431,91.1053936 C23.1300043,91.1053936 24.875,89.3603979 24.875,87.2078367 C24.875,85.0552754 23.1300043,83.3102797 20.9774431,83.3102797 L20.9774431,83.3102797 L3.89755695,83.3102797 C1.74499568,83.3102797 2.63612726e-16,81.565284 0,79.4127228 C-2.63612726e-16,77.2601615 1.74499568,75.5151658 3.89755695,75.5151658 L11.9078082,75.5160394 C9.58052581,69.3815556 8.30681818,62.730976 8.30681818,55.7837838 C8.30681818,24.9752507 33.3559777,7.10542736e-15 64.2556818,7.10542736e-15 C81.7119174,7.10542736e-15 97.3009616,7.970809 107.561359,20.461185 L125.102443,20.462174 C127.255004,20.462174 129,22.2071696 129,24.3597309 C129,26.5122922 127.255004,28.2572879 125.102443,28.2572879 L111.977102,28.2572879 C109.824541,28.2572879 108.079545,30.0022835 108.079545,32.1548448 C108.079545,34.3074061 109.824541,36.0524017 111.977102,36.0524017 L111.977102,36.0524017 L118.75017,36.0524017 C120.902732,36.0524017 122.647727,37.7973974 122.647727,39.9499587 C122.647727,42.0460152 120.993141,43.7556225 118.918818,43.8439326 C119.761228,47.6898898 120.204545,51.6852184 120.204545,55.7837838 C120.204545,86.5923169 95.155386,111.567568 64.2556818,111.567568 C50.7782996,111.567568 38.4139265,106.816269 28.7555912,98.9020007 L16.113466,98.9005075 C13.9609048,98.9005075 12.2159091,97.1555118 12.2159091,95.0029505 C12.2159091,92.8503893 13.9609048,91.1053936 16.113466,91.1053936 Z" id="path-1"></path>
        <linearGradient x1="50%" y1="0%" x2="50%" y2="100%" id="linearGradient-3">
            <stop stop-color="#91C2F8" offset="0%"></stop>
            <stop stop-color="#F3F9FF" offset="100%"></stop>
        </linearGradient>
        <linearGradient x1="16.7063231%" y1="100%" x2="16.7063231%" y2="43.7103639%" id="linearGradient-4">
            <stop stop-color="#F3F9FF" offset="0%"></stop>
            <stop stop-color="#FFFFFF" offset="100%"></stop>
        </linearGradient>
        <linearGradient x1="100%" y1="31.1938422%" x2="50%" y2="59.8765432%" id="linearGradient-5">
            <stop stop-color="#409BFF" offset="0%"></stop>
            <stop stop-color="#0770E2" offset="100%"></stop>
        </linearGradient>
        <linearGradient x1="50%" y1="0%" x2="50%" y2="100%" id="linearGradient-6">
            <stop stop-color="#2083EF" offset="0%"></stop>
            <stop stop-color="#2587F1" offset="100%"></stop>
        </linearGradient>
    </defs>
    <g id="页面-1" stroke="none" stroke-width="1" fill="none" fill-rule="evenodd">
        <g id="06搜素结果_无结果" transform="translate(-107.000000, -197.000000)">
            <g id="icons_feedback" transform="translate(103.000000, 184.000000)">
                <rect id="Rectangle-29" x="15" y="0" width="136" height="136"></rect>
                <g id="编组-5" transform="translate(19.000000, 13.000000)">
                    <mask id="mask-2" fill="white">
                        <use xlink:href="#path-1"></use>
                    </mask>
                    <use id="Mask" fill="#007AFF" opacity="0.0461495551" xlink:href="#path-1"></use>
                    <g id="编组-4" mask="url(#mask-2)">
                        <g transform="translate(31.000000, 32.000000)">
                            <rect id="矩形" fill="url(#linearGradient-3)" x="0" y="9" width="65" height="88" rx="6"></rect>
                            <g id="编组-2" stroke-width="1" fill="none" transform="translate(4.000000, 0.000000)">
                                <rect id="Rectangle-3" fill="url(#linearGradient-4)" x="0" y="13" width="57" height="80" rx="4"></rect>
                                <path d="M29,0 C32.2383969,0 34.8775718,2.56557489 34.9958615,5.77506174 L35,6 L42,6 C44.7614237,6 47,8.23857625 47,11 C47,13.7614237 44.7614237,16 42,16 L16,16 C13.2385763,16 11,13.7614237 11,11 C11,8.23857625 13.2385763,6 16,6 L23,6 C23,2.6862915 25.6862915,0 29,0 Z M29,4 C27.8954305,4 27,4.8954305 27,6 C27,7.1045695 27.8954305,8 29,8 C30.1045695,8 31,7.1045695 31,6 C31,4.8954305 30.1045695,4 29,4 Z" id="形状结合" fill="url(#linearGradient-5)"></path>
                                <rect id="Rectangle-2" fill="#DDEBEE" opacity="0.800000012" x="9" y="29" width="41" height="7.07035176"></rect>
                                <rect id="Rectangle-2-Copy-3" fill="#DDEBEE" opacity="0.800000012" x="9" y="41" width="33" height="7.07035176"></rect>
                            </g>
                        </g>
                    </g>
                </g>
                <path d="M28.9292419,50.8621622 C13.9289647,56.3150467 4.60607945,63.951545 4.60607945,72.4045969 C4.60607945,88.9731394 40.4232995,102.404597 84.6060795,102.404597 C128.788859,102.404597 164.606079,88.9731394 164.606079,72.4045969 C164.606079,67.5179533 161.490459,62.9041943 155.963501,58.8274263" id="路径" stroke="#FFCA00" stroke-width="2" stroke-linecap="round" transform="translate(84.606079, 76.633380) rotate(-15.000000) translate(-84.606079, -76.633380) "></path>
                <circle id="椭圆形" fill="#5792D1" cx="45" cy="27" r="5"></circle>
                <circle id="椭圆形备份" fill="#C1DCFB" cx="12" cy="77" r="7"></circle>
                <circle id="椭圆形备份-2" fill="url(#linearGradient-6)" cx="137" cy="82" r="8"></circle>
            </g>
        </g>
    </g>
</svg>