
<svg width="50px" height="50px" viewBox="0 0 50 50" version="1.1" xmlns="http://www.w3.org/2000/svg" xmlns:xlink="http://www.w3.org/1999/xlink">
    <g id="页面1" stroke="none" stroke-width="1" fill="none" fill-rule="evenodd">
        <g id="微课封面页备份" transform="translate(-76.000000, -692.000000)">
            <g id="Button" transform="translate(0.000000, 684.000000)">
                <g id="Container-Copy备份" transform="translate(76.000000, 8.000000)">
                    <path d="M12.819426,-5.17920154e-16 L37.180574,5.17920154e-16 C41.6381677,-3.00926524e-16 43.2545989,0.464128056 44.8842285,1.33566352 C46.5138581,2.20719898 47.792801,3.48614185 48.6643365,5.11577148 C49.5358719,6.74540111 50,8.3618323 50,12.819426 L50,37.180574 C50,41.6381677 49.5358719,43.2545989 48.6643365,44.8842285 C47.792801,46.5138581 46.5138581,47.792801 44.8842285,48.6643365 C43.2545989,49.5358719 41.6381677,50 37.180574,50 L12.819426,50 C8.3618323,50 6.74540111,49.5358719 5.11577148,48.6643365 C3.48614185,47.792801 2.20719898,46.5138581 1.33566352,44.8842285 C0.464128056,43.2545989 2.00617683e-16,41.6381677 -3.45280103e-16,37.180574 L3.45280103e-16,12.819426 C-2.00617683e-16,8.3618323 0.464128056,6.74540111 1.33566352,5.11577148 C2.20719898,3.48614185 3.48614185,2.20719898 5.11577148,1.33566352 C6.74540111,0.464128056 8.3618323,3.00926524e-16 12.819426,-5.17920154e-16 Z" id="Background" fill="#FFFFFF"></path>
                    <g id="预览" transform="translate(6.000000, 0.000000)">
                        <g id="编组-2" transform="translate(19.000000, 19.000000) rotate(-45.000000) translate(-19.000000, -19.000000) translate(6.000000, 6.000000)" fill="#007AFF" fill-rule="nonzero">
                            <path d="M14.0833333,19.391647 L14.0833333,25 C14.0833333,25.5522847 13.6356181,26 13.0833333,26 L12.9166667,26 C12.3643819,26 11.9166667,25.5522847 11.9166667,25 L11.9166667,19.391647 C9.44423965,18.8897708 7.58333333,16.7038711 7.58333333,14.0833333 C7.58333333,11.0917909 10.0084576,8.66666667 13,8.66666667 C15.9915424,8.66666667 18.4166667,11.0917909 18.4166667,14.0833333 C18.4166667,16.7038711 16.5557603,18.8897708 14.0833333,19.391647 Z M13,17.3333333 C14.7949254,17.3333333 16.25,15.8782588 16.25,14.0833333 C16.25,12.2884079 14.7949254,10.8333333 13,10.8333333 C11.2050746,10.8333333 9.75,12.2884079 9.75,14.0833333 C9.75,15.8782588 11.2050746,17.3333333 13,17.3333333 Z M20.6603235,18.865398 L19.1282588,17.3333333 L22.1923882,14.2692039 C23.0385241,13.423068 23.0385241,12.0512105 22.1923882,11.2050746 L14.5320647,3.5447511 C13.6859287,2.69861513 12.3140713,2.69861513 11.4679353,3.5447511 L3.80761184,11.2050746 C2.96147588,12.0512105 2.96147588,13.423068 3.80761184,14.2692039 L6.87174123,17.3333333 L5.33967654,18.865398 L2.27554715,15.8012686 C0.583275221,14.1089967 0.583275221,11.3652818 2.27554715,9.67300987 L9.93587061,2.01268641 C11.6281425,0.320414477 14.3718575,0.320414477 16.0641294,2.01268641 L23.7244528,9.67300987 C25.4167248,11.3652818 25.4167248,14.1089967 23.7244528,15.8012686 L20.6603235,18.865398 Z" id="形状结合"></path>
                        </g>
                        <rect id="矩形" x="1" y="1" width="36" height="36"></rect>
                    </g>
                </g>
            </g>
        </g>
    </g>
</svg>