<?xml version="1.0" encoding="UTF-8"?>
<svg width="20px" height="20px" viewBox="0 0 20 20" version="1.1" xmlns="http://www.w3.org/2000/svg" xmlns:xlink="http://www.w3.org/1999/xlink">
    <!-- Generator: Sketch 59 (86127) - https://sketch.com -->
    <title>编组 2</title>
    <desc>Created with Sketch.</desc>
    <g id="页面1" stroke="none" stroke-width="1" fill="none" fill-rule="evenodd">
        <g id="画板" transform="translate(-57.000000, -70.000000)" fill="#FFFFFF" fill-rule="nonzero">
            <g id="编组-2" transform="translate(67.384776, 80.384776) rotate(-45.000000) translate(-67.384776, -80.384776) translate(55.384776, 67.384776)">
                <path d="M12,8.66666667 C14.9915424,8.66666667 17.4166667,11.0917909 17.4166667,14.0833333 C17.4166667,16.7040028 15.5555733,18.8899906 13.0829605,19.3917227 L13.0833333,25 C13.0833333,25.5522847 12.6356181,26 12.0833333,26 L11.9166667,26 C11.3643819,26 10.9166667,25.5522847 10.9166667,25 L10.9170395,19.3917227 C8.44442671,18.8899906 6.58333333,16.7040028 6.58333333,14.0833333 C6.58333333,11.0917909 9.00845761,8.66666667 12,8.66666667 Z M15.0641294,2.01268641 L22.7244528,9.67300987 C24.4167248,11.3652818 24.4167248,14.1089967 22.7244528,15.8012686 L19.6607949,18.8649266 L18.1284945,17.3326262 L21.1923882,14.2692039 C22.0385241,13.423068 22.0385241,12.0512105 21.1923882,11.2050746 L13.5320647,3.5447511 C12.6859287,2.69861513 11.3140713,2.69861513 10.4679353,3.5447511 L2.80761184,11.2050746 C1.96147588,12.0512105 1.96147588,13.423068 2.80761184,14.2692039 L5.87150553,17.3326262 L4.33920513,18.8649266 L1.27554715,15.8012686 C-0.416724779,14.1089967 -0.416724779,11.3652818 1.27554715,9.67300987 L8.93587061,2.01268641 C10.6281425,0.320414477 13.3718575,0.320414477 15.0641294,2.01268641 Z M12,10.8333333 C10.2050746,10.8333333 8.75,12.2884079 8.75,14.0833333 C8.75,15.8782588 10.2050746,17.3333333 12,17.3333333 C13.7949254,17.3333333 15.25,15.8782588 15.25,14.0833333 C15.25,12.2884079 13.7949254,10.8333333 12,10.8333333 Z" id="形状结合"></path>
            </g>
        </g>
    </g>
</svg>