
<svg width="14px" height="14px" viewBox="0 0 14 14" version="1.1" xmlns="http://www.w3.org/2000/svg" xmlns:xlink="http://www.w3.org/1999/xlink">
    <g id="页面-1" stroke="none" stroke-width="1" fill="none" fill-rule="evenodd">
        <g id="弹窗收起为悬浮状态" transform="translate(-33.000000, -501.000000)" fill="#BFBFBF" fill-rule="nonzero">
            <g id="编组-5" transform="translate(16.000000, 457.000000)">
                <g transform="translate(16.000000, 14.000000)" id="Question-/-white">
                    <g transform="translate(0.000000, 29.000000)">
                        <path d="M8,1 C11.9,1 15,4.1 15,8 C15,11.9 11.9,15 8,15 C4.1,15 1,11.9 1,8 C1,4.1 4.1,1 8,1 Z M8,2 C4.7,2 2,4.7 2,8 C2,11.3 4.7,14 8,14 C11.3,14 14,11.3 14,8 C14,4.7 11.3,2 8,2 Z M8.1,4 C9.4,4 10.4,4.8 10.4,6.1 C10.4,6.8 10.1,7.4 9.5,8 C9.1,8.3 9,8.5 8.9,8.7 C8.8,8.9 8.7,9 8.7,9.4 C8.7,9.5 8.7,9.6 8.7,9.8 L7.5,9.8 L7.5,9.5 C7.5,8.5 7.9,8 8.7,7.2 C9.1,6.8 9.3,6.5 9.3,6.1 C9.3,5.5 8.8,5 8.1,5 C7.2,5 6.7,5.4 6.7,6.3 L6.7,6.6 L5.6,6.6 L5.6,6.3 C5.6,4.9 6.5,4 8.1,4 Z M8.1,10.3 C8.6,10.3 8.9,10.7 8.9,11.1 C9,11.6 8.6,12 8.1,12 C7.6,12 7.3,11.6 7.3,11.2 C7.3,10.7 7.7,10.3 8.1,10.3 Z" id="Shape"></path>
                    </g>
                </g>
            </g>
        </g>
    </g>
</svg>