
<svg width="28px" height="26px" viewBox="0 0 28 26" version="1.1" xmlns="http://www.w3.org/2000/svg" xmlns:xlink="http://www.w3.org/1999/xlink">
    <defs>
        <linearGradient x1="36.316003%" y1="8.23464736%" x2="81.172247%" y2="88.2644151%" id="linearGradient-1">
            <stop stop-color="#FFE900" offset="0%"></stop>
            <stop stop-color="#FFBB0B" offset="100%"></stop>
        </linearGradient>
    </defs>
    <g id="页面1" stroke="none" stroke-width="1" fill="none" fill-rule="evenodd">
        <g id="训练营评价备份-4" transform="translate(-63.000000, -111.000000)" fill="url(#linearGradient-1)">
            <g id="编组" transform="translate(20.000000, 110.000000)">
                <path d="M56.5587513,23.0169642 L49.8840814,26.2989333 C49.3884694,26.5426283 48.7891427,26.3384091 48.5454478,25.8427972 C48.4565573,25.6620169 48.4243398,25.4586041 48.4530156,25.2592032 L49.5117673,17.8970306 C49.555905,17.5901131 49.4551703,17.2800837 49.2390606,17.0577257 L44.055136,11.7239216 C43.6702159,11.3278725 43.6792377,10.6947718 44.0752868,10.3098516 C44.2197503,10.1694475 44.4032517,10.0759489 44.6017545,10.0416029 L51.930769,8.77349917 C52.2363042,8.7206339 52.5000309,8.52902521 52.6447244,8.25478022 L56.1155527,1.67633888 C56.3732709,1.18787214 56.9781734,1.00081351 57.4666401,1.25853173 C57.6448141,1.35253745 57.7904416,1.49816496 57.8844473,1.67633888 L61.3552756,8.25478022 C61.4999691,8.52902521 61.7636958,8.7206339 62.069231,8.77349917 L69.3982455,10.0416029 C69.9424443,10.135763 70.3072727,10.6532551 70.2131127,11.1974539 C70.1787667,11.3959568 70.0852681,11.5794581 69.944864,11.7239216 L64.7609394,17.0577257 C64.5448297,17.2800837 64.444095,17.5901131 64.4882327,17.8970306 L65.5469844,25.2592032 C65.6255995,25.8058641 65.2461735,26.3127504 64.6995126,26.3913655 C64.5001117,26.4200413 64.2966989,26.3878239 64.1159186,26.2989333 L57.4412487,23.0169642 C57.1629921,22.880144 56.8370079,22.880144 56.5587513,23.0169642 Z" id="星形备份"></path>
            </g>
        </g>
    </g>
</svg>