
<svg width="28px" height="26px" viewBox="0 0 28 26" version="1.1" xmlns="http://www.w3.org/2000/svg" xmlns:xlink="http://www.w3.org/1999/xlink">
    <g id="页面1" stroke="none" stroke-width="1" fill="none" fill-rule="evenodd">
        <g id="训练营评价备份-4" transform="translate(-105.000000, -111.000000)" fill="#E5E8EC">
            <g id="编组" transform="translate(20.000000, 110.000000)">
                <path d="M98.5587513,23.0169642 L91.8840814,26.2989333 C91.3884694,26.5426283 90.7891427,26.3384091 90.5454478,25.8427972 C90.4565573,25.6620169 90.4243398,25.4586041 90.4530156,25.2592032 L91.5117673,17.8970306 C91.555905,17.5901131 91.4551703,17.2800837 91.2390606,17.0577257 L86.055136,11.7239216 C85.6702159,11.3278725 85.6792377,10.6947718 86.0752868,10.3098516 C86.2197503,10.1694475 86.4032517,10.0759489 86.6017545,10.0416029 L93.930769,8.77349917 C94.2363042,8.7206339 94.5000309,8.52902521 94.6447244,8.25478022 L98.1155527,1.67633888 C98.3732709,1.18787214 98.9781734,1.00081351 99.4666401,1.25853173 C99.6448141,1.35253745 99.7904416,1.49816496 99.8844473,1.67633888 L103.355276,8.25478022 C103.499969,8.52902521 103.763696,8.7206339 104.069231,8.77349917 L111.398245,10.0416029 C111.942444,10.135763 112.307273,10.6532551 112.213113,11.1974539 C112.178767,11.3959568 112.085268,11.5794581 111.944864,11.7239216 L106.760939,17.0577257 C106.54483,17.2800837 106.444095,17.5901131 106.488233,17.8970306 L107.546984,25.2592032 C107.6256,25.8058641 107.246173,26.3127504 106.699513,26.3913655 C106.500112,26.4200413 106.296699,26.3878239 106.115919,26.2989333 L99.4412487,23.0169642 C99.1629921,22.880144 98.8370079,22.880144 98.5587513,23.0169642 Z" id="星形备份-2"></path>
            </g>
        </g>
    </g>
</svg>