
<svg width="20px" height="20px" viewBox="0 0 20 20" version="1.1" xmlns="http://www.w3.org/2000/svg" xmlns:xlink="http://www.w3.org/1999/xlink">
    <g id="页面-1" stroke="none" stroke-width="1" fill="none" fill-rule="evenodd">
        <g id="无新学习任务" transform="translate(-32.000000, -557.000000)">
            <g id="编组-5备份-2" transform="translate(16.000000, 545.000000)">
                <g id="编组-2" transform="translate(16.000000, 12.000000)">
                    <rect id="矩形" fill="#00CBFF" x="0" y="0" width="20" height="20" rx="4"></rect>
                    <g id="Glyph" transform="translate(2.000000, 4.000000)" fill="#FFFFFF">
                        <g id="Muted" transform="translate(0.533333, 0.600000)">
                            <path d="M11.6191883,0 C12.8916992,0 14.0254757,0.480279385 14.7705883,1.22968084 C14.9321852,1.39891722 14.9321852,1.64889022 14.9321852,1.64889022 L14.9321852,5.25564348 L14.9321852,10.7643652 C14.948293,10.8601106 14.7908529,10.9486103 14.714471,10.8756368 C14.4842863,10.6551638 14.2187685,10.4616029 13.9241529,10.3016823 C13.1681287,9.84055197 12.2551839,9.57039481 11.2705338,9.57039481 C11.24923,9.57039481 11.2284458,9.57298252 11.2071421,9.57298252 C11.1868775,9.57298252 11.1681717,9.57039481 11.1484268,9.57039481 C10.8995363,9.57039481 10.6574007,9.59575439 10.4235788,9.64181567 C9.14327383,9.89385884 8.13783953,10.8026634 7.81776329,11.9629935 C7.81620447,11.9681689 7.81308685,11.9790373 7.81308685,11.9790373 C7.81152803,12.0012917 7.77515573,12.01216 7.7709989,11.9790373 L7.7709989,4.39911074 L7.7709989,2.55872983 C7.7709989,2.21094131 7.93207623,1.92267017 7.95753684,1.8791966 C8.61587547,0.766997897 10.0078954,0 11.6191883,0 Z M3.31414506,0 C4.92543797,0 6.31745786,0.766997897 6.97579649,1.8791966 C7.0012571,1.92267017 7.16233443,2.21094131 7.16233443,2.55872983 L7.16233443,4.39911074 L7.16233443,11.9790373 C7.1581776,12.01216 7.1218053,12.0012917 7.12024649,11.9790373 C7.12024649,11.9790373 7.11712886,11.9681689 7.11557005,11.9629935 C6.79549381,10.8026634 5.79005951,9.89385884 4.50975454,9.64181567 C4.2759326,9.59575439 4.03379701,9.57039481 3.78490655,9.57039481 C3.76516159,9.57039481 3.74645583,9.57298252 3.72619127,9.57298252 C3.70488749,9.57298252 3.68410332,9.57039481 3.66279954,9.57039481 C2.67814941,9.57039481 1.76520468,9.84055197 1.00918044,10.3016823 C0.714564803,10.4616029 0.449047011,10.6551638 0.218862311,10.8756368 C0.14248048,10.9486103 -0.0149596194,10.8601106 0.00114811362,10.7643652 L0.00114811362,5.25564348 L0.00114811362,1.64889022 C0.00114811362,1.64889022 0.00114811362,1.39891722 0.162745048,1.22968084 C0.907857599,0.480279385 2.04163416,0 3.31414506,0 Z" id="Icon"></path>
                        </g>
                    </g>
                </g>
            </g>
        </g>
    </g>
</svg>