
<svg width="52px" height="16px" viewBox="0 0 52 16" version="1.1" xmlns="http://www.w3.org/2000/svg" xmlns:xlink="http://www.w3.org/1999/xlink">
    <g id="页面-1" stroke="none" stroke-width="1" fill="none" fill-rule="evenodd">
        <g id="奖励已发放_toast" transform="translate(-70.000000, -542.000000)">
            <rect fill="#FFFFFF" x="0" y="0" width="375" height="812"></rect>
            <g id="编组-6" transform="translate(32.000000, 440.000000)">
                <g id="编组-2" transform="translate(36.000000, 62.000000)">
                    <g id="编组-3">
                        <g id="captain" transform="translate(2.695132, 40.001278)">
                            <path d="M50.6098441,-0.000226979794 C46.1157734,9.45899567 36.4740382,15.9987218 25.3048681,15.9987218 C14.135698,15.9987218 4.49396282,9.45899567 -0.00010783921,-0.000226979794 Z" id="形状结合" fill="#D5B061" fill-rule="evenodd"></path>
                            <path d="M17.3048681,3.32292773 L17.3048681,10.9987218 L17.9182306,10.9987218 L17.9182306,3.91876563 L19.3377268,3.91876563 C19.1099064,4.65480068 18.7944628,5.47845895 18.3738714,6.38974044 C18.9959963,7.12577549 19.3114398,7.79171196 19.3114398,8.38754986 C19.3114398,8.57155862 19.2501036,8.70299345 19.1449557,8.78185435 C19.0398079,8.85195292 18.8207498,8.90452686 18.5053062,8.9220515 C18.417683,8.9220515 18.3037728,8.90452686 18.1635757,8.88700221 L18.3738714,9.52665172 C18.9872339,9.5178894 19.4078254,9.41274153 19.6531704,9.20244581 C19.8284168,9.03596169 19.9248024,8.7643297 19.9248024,8.38754986 C19.8809908,7.75666267 19.5743095,7.06443923 19.0047586,6.2933549 C19.3727761,5.43464734 19.6882197,4.61098907 19.9598517,3.82238009 L19.9598517,3.32292773 L17.3048681,3.32292773 Z M21.8612756,3.01624646 C21.8525132,4.71613693 21.7123161,6.10934613 21.4494464,7.20463639 C21.0989535,8.50146004 20.3892055,9.58798797 19.3202022,10.4466955 L19.7407936,10.9461479 C20.9675187,9.98229246 21.7473654,8.74680506 22.0803336,7.23968567 L22.1767191,6.78404493 L22.1767191,6.78404493 C22.7024585,8.42259915 23.4910674,9.7982837 24.5425461,10.9110986 L24.9981868,10.376597 C23.7539371,9.1586342 22.8777049,7.50255533 22.3694902,5.39959805 C22.4395888,4.68108765 22.4834004,3.88371634 22.4834004,3.01624646 L21.8612756,3.01624646 Z M25.8481321,6.35469115 L25.8481321,6.96805369 L27.6268834,6.96805369 L27.6268834,10.0348664 C27.6268834,10.1750635 27.5567849,10.2714491 27.42535,10.3415477 L27.6268834,10.9198609 C28.6082635,10.6920405 29.5283073,10.4379332 30.3870149,10.1400143 L30.2205308,9.53541404 C29.5721189,9.78075906 28.9149448,9.98229246 28.2577706,10.1400143 L28.2577706,6.96805369 L30.0803336,6.96805369 C30.4658758,8.61537023 31.5348791,9.90343157 33.3048681,10.841 L33.6728856,10.2539244 C32.0518561,9.46531547 31.0529513,8.37002521 30.6849338,6.96805369 L33.5677378,6.96805369 L33.5677378,6.35469115 L28.2577706,6.35469115 L28.2577706,2.99872182 L27.6268834,2.99872182 L27.6268834,6.35469115 L25.8481321,6.35469115 Z M32.2358648,3.06882039 L32.6652186,3.49817417 C31.9642328,4.28678315 30.9039919,4.99653124 29.5020204,5.62741842 L29.1252405,5.12796607 C30.5184497,4.51460353 31.5524037,3.83114241 32.2358648,3.06882039 Z" id="队长" fill="#FFFFFF" fill-rule="nonzero"></path>
                        </g>
                    </g>
                </g>
            </g>
        </g>
    </g>
</svg>