
<svg width="52px" height="16px" viewBox="0 0 52 16" version="1.1" xmlns="http://www.w3.org/2000/svg" xmlns:xlink="http://www.w3.org/1999/xlink">
    <g id="页面-1" stroke="none" stroke-width="1" fill="none" fill-rule="evenodd">
        <g id="组队成功页" transform="translate(-254.000000, -542.000000)">
            <g id="编组-6" transform="translate(32.000000, 440.000000)">
                <g id="编组-2" transform="translate(36.000000, 62.000000)">
                    <g id="编组-4" transform="translate(186.695132, 40.001278)">
                        <path d="M50.6098441,-0.000226979794 C46.1157734,9.45899567 36.4740382,15.9987218 25.3048681,15.9987218 C14.135698,15.9987218 4.49396282,9.45899567 -0.00010783921,-0.000226979794 Z" id="形状结合" fill="#D5B061"></path>
                        <path d="M20.6789303,3.18736062 C19.8472047,3.54748924 18.9125851,3.74470253 17.8750718,3.76185151 L17.8750718,7.43173361 C17.8321993,8.73505622 17.5578156,9.75542064 17.0519206,10.4928269 L17.4892197,10.9558494 C18.106583,10.0812513 18.4324137,8.90654604 18.4752861,7.43173361 L18.4752861,6.41136919 L19.7443108,6.41136919 L19.7443108,10.9901473 L20.3530996,10.9901473 L20.3530996,6.41136919 L21.2448467,6.41136919 L21.2448467,5.81972932 L18.4752861,5.81972932 L18.4752861,4.25917198 C19.4013311,4.20772503 20.2330567,4.02766073 20.9876119,3.73612804 L20.6789303,3.18736062 Z M13.5363794,3.84759642 L13.5363794,4.41351282 L17.4034748,4.41351282 L17.4034748,3.84759642 L15.782896,3.84759642 C15.6628531,3.53891474 15.5428102,3.25595655 15.4141929,2.99872182 L14.7796805,3.10161571 C14.9254469,3.32455247 15.0540642,3.57321271 15.1741071,3.84759642 L13.5363794,3.84759642 Z M13.4506345,5.79400585 L13.4506345,6.35134776 L15.1826816,6.35134776 L15.1826816,7.31169074 L13.5878263,7.31169074 L13.5878263,7.87760713 L15.1826816,7.87760713 L15.1826816,10.1584217 C15.1826816,10.3642095 15.0712132,10.4671034 14.8482765,10.4671034 C14.7282336,10.4671034 14.5996162,10.4499544 14.4624244,10.4242309 L14.5910417,10.9987218 L15.0540642,10.9987218 C15.5513847,10.9987218 15.800045,10.7672106 15.800045,10.3041881 L15.800045,7.87760713 L17.3091554,7.87760713 L17.3091554,7.31169074 L15.800045,7.31169074 L15.800045,6.35134776 L17.4549217,6.35134776 L17.4549217,5.79400585 L16.4860042,5.79400585 C16.6489196,5.50247316 16.7946859,5.16806801 16.9318778,4.79936491 L16.3745358,4.61072611 C16.2459185,5.02230167 16.1001521,5.41672825 15.9286623,5.79400585 L14.9854683,5.79400585 C14.8482765,5.33098334 14.6939356,4.94513125 14.5310203,4.62787509 L13.9822529,4.82508838 C14.1537427,5.12519556 14.3080835,5.45102621 14.4367009,5.79400585 L13.4506345,5.79400585 Z M14.1880407,8.34062964 C13.9994019,9.09518484 13.7078692,9.78114411 13.3048681,10.3985075 L13.8193376,10.7243381 C14.2137641,10.0812513 14.5310203,9.3266961 14.7539571,8.46067252 L14.1880407,8.34062964 Z M16.6489196,8.28060821 L16.1344501,8.41780006 C16.3745358,8.93226951 16.5717491,9.46388795 16.7346645,10.0040809 L17.2491339,9.80686759 C17.1119421,9.34384508 16.9061543,8.83795011 16.6489196,8.28060821 Z M23.4141929,6.09411303 L25.5921136,6.09411303 L25.5921136,7.59464894 L23.4141929,7.59464894 L23.4141929,6.09411303 Z M23.3798949,8.16056533 L25.5921136,8.16056533 L25.5921136,10.6728912 L26.2266259,10.6728912 L26.2266259,8.16056533 L28.5588874,8.16056533 L28.5588874,9.65252675 C28.5588874,10.0126554 28.3959721,10.1927197 28.0872904,10.1927197 C27.7957577,10.1927197 27.4785015,10.1755707 27.1355219,10.1584217 L27.2984372,10.7672106 L28.2845037,10.7672106 C28.8847181,10.7672106 29.1848252,10.4671034 29.1848252,9.86688902 L29.1848252,3.44459534 L22.7968295,3.44459534 L22.7968295,7.56035097 C22.7796805,8.73505622 22.4967223,9.70397369 21.9479549,10.4671034 L22.4195519,10.8872534 C22.9683193,10.1669962 23.2855755,9.25810017 23.3798949,8.16056533 Z M28.5588874,7.59464894 L26.2266259,7.59464894 L26.2266259,6.09411303 L28.5588874,6.09411303 L28.5588874,7.59464894 Z M28.5588874,5.51962214 L26.2266259,5.51962214 L26.2266259,4.04480971 L28.5588874,4.04480971 L28.5588874,5.51962214 Z M25.5921136,4.04480971 L25.5921136,5.51962214 L23.4141929,5.51962214 L23.4141929,4.04480971 L25.5921136,4.04480971 Z M34.4667116,3.05016876 C34.6210525,3.37599942 34.7753933,3.74470253 34.9297341,4.15627809 L37.6392733,4.15627809 L37.6392733,7.03730703 L32.1173011,7.03730703 C32.0744287,8.5721409 31.6714276,9.89261249 30.8997234,10.9987218 L30.4452754,10.5871463 C31.1398092,9.62680328 31.4913633,8.37492761 31.5085123,6.84009374 L31.5085123,4.15627809 L34.3037963,4.15627809 C34.1494555,3.79614947 33.9865401,3.46174433 33.8064758,3.15306265 L34.4667116,3.05016876 Z M37.0133354,4.76506694 L32.1173011,4.76506694 L32.1173011,6.43709267 L37.0133354,6.43709267 L37.0133354,4.76506694 Z" id="新用户" fill="#FFFFFF" fill-rule="nonzero"></path>
                    </g>
                </g>
            </g>
        </g>
    </g>
</svg>