
<svg width="20px" height="19px" viewBox="0 0 20 19" version="1.1" xmlns="http://www.w3.org/2000/svg" xmlns:xlink="http://www.w3.org/1999/xlink">
    <g id="页面1" stroke="none" stroke-width="1" fill="none" fill-rule="evenodd">
        <g id="feed查看更多备份" transform="translate(-339.000000, -662.000000)">
            <g id="编组-8备份" transform="translate(16.000000, 655.000000)">
                <g id="编组-7" transform="translate(290.000000, 6.000000)">
                    <g id="编组-2备份" transform="translate(32.000000, 0.000000)">
                        <path d="M13.0471276,7.41658441 L18.2922616,7.41658441 C18.8360056,7.41049357 19.355022,7.64090809 19.7118381,8.04679781 C20.0686543,8.45268754 20.2272675,8.99309825 20.1456658,9.52489072 L18.8668169,17.774785 C18.7282389,18.6786765 17.9376004,19.343433 17.0134127,19.3332172 L6.56021273,19.3332172 L6.56021273,9.24989425 L10.2670212,1 C11.8024316,1 13.0471276,2.23120116 13.0471276,3.74996475 L13.0471276,7.41658441 Z M5.63351061,19.3330983 L2.85340424,19.3330983 C1.82979734,19.3330983 1,18.5122976 1,17.4997885 L1,11.0832041 C1,10.070695 1.82979734,9.24989425 2.85340424,9.24989425 L5.63351061,9.24989425 L5.63351061,19.3330983 Z" id="形状结合" fill="#007AFF"></path>
                        <rect id="矩形" x="0" y="0" width="20" height="20"></rect>
                    </g>
                </g>
            </g>
        </g>
    </g>
</svg>