<?xml version="1.0" encoding="UTF-8"?>
<svg width="23px" height="22px" viewBox="0 0 23 22" version="1.1" xmlns="http://www.w3.org/2000/svg" xmlns:xlink="http://www.w3.org/1999/xlink">
    <!-- Generator: Sketch 55.2 (78181) - https://sketchapp.com -->
    <title>Training camp-icon-like</title>
    <desc>Created with Sketch.</desc>
    <g id="页面1" stroke="none" stroke-width="1" fill="none" fill-rule="evenodd">
        <g id="团队学习详情页-学员端" transform="translate(-91.000000, -1060.000000)">
            <g id="编组-6" transform="translate(90.000000, 1059.000000)">
                <g id="Training-camp-icon-like">
                    <path d="M12.6520756,1.91722894 L8.53312484,11.0843894 L8.53312484,22.1389947 L20.2256105,22.1390436 C20.9077069,22.1465834 21.4881871,21.6584986 21.589471,20.9978701 L23.1238888,11.0992997 C23.1831317,10.7132179 23.0678882,10.3205722 22.8076496,10.0245425 C22.5454296,9.72625885 22.1623965,9.55621333 21.7507139,9.56077086 L14.5956835,9.56077086 L14.5956835,4.2999577 C14.5956835,3.13433519 13.7648733,2.15710957 12.6520756,1.91722894 Z M5.69934316,22.1388484 L5.69934316,11.7607427 L3.22408509,11.7607427 C2.46911392,11.7607427 1.86086957,12.3623925 1.86086957,13.0998449 L1.86086957,20.7997462 C1.86086957,21.5371986 2.46911392,22.1388484 3.22408509,22.1388484 L5.69934316,22.1388484 Z" id="形状结合" stroke="#2E2E2E" stroke-width="1.72173913"></path>
                    <rect id="矩形" x="0" y="0" width="24" height="24"></rect>
                </g>
            </g>
        </g>
    </g>
</svg>